<svg width="900" height="479" viewBox="0 0 900 479" fill="none" xmlns="http://www.w3.org/2000/svg">
<path d="M259.379 396.703C258.902 384.988 257.875 374.793 256.646 367.687C254.686 356.356 252.922 349.838 252.902 349.77C252.644 348.774 248.915 344.739 240.625 344.865C232.334 344.987 233.121 350.277 233.121 350.277C233.12 350.454 233.143 350.621 233.18 350.747C233.26 351.019 240.87 378.613 240.54 414.239C240.536 414.739 240.48 415.603 240.515 416.178C240.515 416.181 259.727 416.675 259.732 416.178C260.402 413.065 260.075 404.439 259.379 396.703Z" fill="#B7D3F3"/>
<path d="M261.794 414.062C261.788 414.559 261.526 414.957 261.206 414.957H261.199C260.879 414.95 260.625 414.552 260.621 414.062H244.156C244.151 414.559 243.888 414.957 243.569 414.957H243.561C243.236 414.95 242.978 414.538 242.982 414.038C243.077 403.84 242.496 394.315 241.616 385.91C239.427 364.948 235.381 350.94 235.323 350.746C235.287 350.621 235.264 350.454 235.264 350.277C235.264 350.277 234.478 344.991 242.767 344.865C251.059 344.739 254.788 348.773 255.046 349.77C255.061 349.821 256.06 353.512 257.388 360.149C257.827 362.346 258.302 364.867 258.79 367.687C260.018 374.793 261.045 384.988 261.522 396.703C262.218 404.439 262.463 410.949 261.794 414.062Z" fill="#D2E3FC"/>
<path d="M241.765 414.957H306.315C306.315 414.957 304.811 408.874 267.429 409.779C240.974 410.422 241.765 414.957 241.765 414.957Z" fill="#C5DCF8"/>
<path d="M236.511 478.497C243.995 440.609 242.07 417.358 242.061 417.066C242.042 416.48 243.117 415.953 243.696 415.933C244.281 415.923 246.864 415.759 247.163 416.259C247.555 416.913 249.062 445.558 237.908 478.497H236.511Z" fill="#B7D3F3"/>
<path d="M296.78 478.497C289.296 440.609 291.221 417.358 291.232 417.066C291.249 416.48 290.174 415.953 289.595 415.933C289.01 415.923 286.428 415.759 286.129 416.259C285.738 416.913 284.228 445.558 295.385 478.497H296.78Z" fill="#B7D3F3"/>
<path d="M308.723 478.497C301.239 440.609 303.164 417.358 303.174 417.066C303.192 416.48 302.117 415.953 301.538 415.933C300.953 415.923 298.371 415.759 298.072 416.259C297.681 416.913 296.174 445.558 307.328 478.497H308.723Z" fill="#B7D3F3"/>
<path d="M248.535 478.497C256.02 440.609 254.095 417.358 254.086 417.066C254.067 416.48 255.142 415.953 255.72 415.933C256.306 415.923 258.889 415.759 259.188 416.259C259.58 416.913 261.087 445.558 249.932 478.497H248.535Z" fill="#B7D3F3"/>
<path d="M306.351 416.899H241.803C241.075 416.899 240.48 416.304 240.48 415.576V414.708C240.48 413.98 241.075 413.385 241.803 413.385H306.351C307.079 413.385 307.674 413.98 307.674 414.708V415.576C307.674 416.304 307.079 416.899 306.351 416.899Z" fill="#B7D3F3"/>
<path d="M304.085 358.604L325.539 353.958L326.805 357.036C326.805 357.036 303.129 371.126 300.911 370.435C298.693 369.745 304.085 358.604 304.085 358.604Z" fill="#FFB27D"/>
<path d="M284.578 455.647C284.04 456.263 283.972 456.95 284.238 457.685C284.238 457.688 284.241 457.692 284.244 457.695C284.734 459.052 286.36 460.573 288.248 462.087C288.49 462.281 288.704 462.461 288.891 462.624C288.939 462.665 288.99 462.709 289.034 462.753C289.071 462.787 289.109 462.821 289.146 462.852C290.905 464.475 290.245 464.845 293.405 468.138C297.011 471.89 299.494 471.958 300.198 471.618C300.797 471.326 299.583 469.336 298.239 467.101C298.174 466.992 298.11 466.883 298.042 466.774C297.865 466.475 297.684 466.175 297.508 465.876C295.933 463.185 296.337 461.92 296.708 457.916C297.014 454.661 301.773 439.731 301.773 439.731L294.864 438.54C294.864 438.54 292.783 450.429 290.49 452.259C289.265 453.235 287.891 453.249 286.714 453.97C286.629 454.021 286.547 454.072 286.469 454.127C285.799 454.569 285.119 455.028 284.578 455.647Z" fill="#FFB27D"/>
<path d="M284.578 455.647C284.04 456.263 283.972 456.95 284.238 457.685C284.238 457.688 284.241 457.692 284.244 457.695C284.847 459.052 286.428 460.563 288.255 462.073C288.493 462.27 288.704 462.454 288.891 462.624C288.939 462.665 288.99 462.709 289.034 462.753C289.071 462.787 289.109 462.821 289.146 462.852C290.905 464.475 290.245 464.845 293.405 468.138C297.011 471.89 299.494 471.958 300.198 471.618C300.797 471.326 299.583 469.336 298.239 467.101C297.538 466.842 294.276 465.519 291.81 462.362C289.639 459.593 288.194 456.032 286.714 453.97C286.629 454.021 286.547 454.072 286.469 454.127C285.799 454.569 285.119 455.028 284.578 455.647Z" fill="#1C468A"/>
<path d="M340.292 451.331C340.718 453.464 343.759 453.107 347.157 452.277C350.552 451.447 349.746 452.433 354.579 451.899C359.413 451.365 360.879 449.562 361.026 448.845C361.158 448.205 358.77 447.98 356.205 447.685C355.886 447.651 355.559 447.61 355.236 447.569C352.345 447.205 350.225 445.341 347.599 443.807C345.109 442.354 341.395 436.439 341.395 436.439L334.765 436.962C334.765 436.962 338.245 442.249 339.592 444.545C340.381 445.895 340.34 447.685 340.241 449.062C340.19 449.814 340.143 450.579 340.292 451.331Z" fill="#FFB27D"/>
<path d="M347.159 452.277C350.554 451.447 349.747 452.433 354.581 451.899C359.415 451.365 360.881 449.562 361.027 448.845C361.16 448.205 358.772 447.98 356.207 447.685L356.183 447.736C356.183 447.736 353.285 449.79 349.261 449.885C345.982 449.967 342.509 449.025 340.243 449.062C340.192 449.814 340.144 450.579 340.294 451.331C340.719 453.464 343.76 453.107 347.159 452.277Z" fill="#1C468A"/>
<path d="M325.54 353.957C325.54 353.957 327.122 350.086 328.86 349.93C330.595 349.77 336.126 348.902 336.521 349.691C336.915 350.481 336.521 353.324 335.333 354.352C334.15 355.379 326.805 357.036 326.805 357.036L325.54 353.957Z" fill="#FFB27D"/>
<path d="M314.886 408.939L300.599 447.392C300.599 447.392 298.405 447.603 296.299 446.997C294.364 446.439 292.143 444.973 292.143 444.973C292.143 444.973 295.687 408.051 302.188 400.374C308.685 392.693 314.886 408.939 314.886 408.939Z" fill="#163560"/>
<path d="M258.373 393.383C258.373 393.383 299.429 379.501 308.586 382.454C317.743 385.41 345.232 440.105 345.232 440.105C345.232 440.105 344.613 440.929 342.919 441.565C341.344 442.157 337.531 442.119 337.531 442.119C337.531 442.119 312.719 420.852 309.766 414.651C306.814 408.446 305.633 402.541 302.677 403.129C299.725 403.721 264.576 417.603 256.601 409.334C248.626 401.064 250.712 390.318 250.712 390.318L258.373 393.383Z" fill="#1C468A"/>
<path d="M281.779 295.492C280.005 294.485 277.878 294.373 276.39 294.462C276.773 294.067 277.527 293.921 277.527 293.921C276.604 293.785 274.545 294.7 274.545 294.7C261.714 289.757 259.698 308.65 259.967 313.038C260.235 317.426 260.267 322.478 253.862 326.417C241.259 334.163 251.893 347.684 251.893 347.684C251.992 347.742 257.756 357.519 257.756 357.519C257.433 353.971 273.798 335.255 282.337 329.649C284.416 326.587 285.155 321.182 285.209 320.757C284.852 325.043 284.117 327.448 283.462 328.802C290.693 322.148 286.481 298.166 281.779 295.492Z" fill="#16181D"/>
<path d="M281.833 329.928C281.876 329.945 277.71 332.109 274.577 331.251C271.63 330.449 269.704 326.628 269.745 326.618C270.993 326.37 271.353 324.655 271.327 317.287L271.891 317.396L281.378 319.274C281.378 319.274 281.162 322.261 281.155 325.074C281.149 327.435 281.292 329.676 281.833 329.928Z" fill="#FFB27D"/>
<path d="M281.377 319.274C281.377 319.274 281.162 322.261 281.155 325.074C275.846 324.925 273.04 320.081 271.891 317.397L281.377 319.274Z" fill="#ED975D"/>
<path d="M270.91 316.366C270.91 316.366 268.128 311.967 267.46 308.208C266.983 305.528 268.35 295.578 278.346 297.014C278.346 297.014 281.249 297.299 283.978 299.143C286.149 300.606 289.281 303.773 285.778 312.45L284.87 315.383L270.91 316.366Z" fill="#16181D"/>
<path d="M283.15 321.938C283.15 321.938 270.589 322.145 270.58 314.322C270.572 306.498 268.945 301.256 276.964 300.793C284.982 300.33 286.543 303.314 287.183 305.923C287.822 308.535 286.417 321.683 283.15 321.938Z" fill="#FFB27D"/>
<path d="M282.684 300.602C282.684 300.602 279.245 309.78 273.967 311.137C268.69 312.494 266.4 311.079 266.4 311.079C266.4 311.079 270.449 307.865 271.289 302.252C271.289 302.252 280.09 296.231 282.684 300.602Z" fill="#16181D"/>
<path d="M281.832 301.347C281.832 301.347 284.4 303.394 285.026 305.388C285.651 307.381 285.934 311.48 287.131 311.341C287.131 311.341 289.72 305.102 286.808 301.575C283.721 297.829 281.832 301.347 281.832 301.347Z" fill="#16181D"/>
<path d="M253.864 363.717C252.625 358.523 256.839 348.444 261.238 340.099C265.23 332.534 269.373 326.398 269.745 326.619C280.272 332.868 281.224 327.673 281.224 327.673H281.224C281.228 327.673 290.786 328.942 293.494 333.602C296.851 339.385 300.481 355.547 304.087 358.605C303.532 360.299 303.77 361.2 304.355 363.299C304.481 363.748 304.621 364.177 304.774 364.581C305.318 366.058 305.995 367.259 306.583 368.296C304.75 369.412 301.212 371.528 298.606 370.007C294.633 367.68 291.531 360.601 289.786 357.781C289.779 357.771 289.776 357.761 289.769 357.751C285.976 379.219 291.133 384.107 288.521 386.369C285.765 388.761 281.826 385.233 273.162 388.988C267.479 391.455 259.592 395.016 254.283 395.639C251.499 395.965 249.421 395.479 248.744 393.601C246.774 388.135 256.227 373.623 253.864 363.717Z" fill="#1C468A"/>
<path d="M280.358 317.196C280.358 317.196 280.592 318.189 283.065 318.036C283.065 318.036 285.142 317.91 285.078 316.815C285.078 316.815 283.064 316.039 280.358 317.196Z" fill="#E3E3E3"/>
<path d="M248.744 393.601C249.421 395.479 251.499 395.965 254.283 395.639C257.958 394.037 273.831 387.886 273.654 383.719C273.39 377.552 270.602 377.355 272.571 369.738C274.152 363.626 259.485 352.257 257.145 349.784C252.746 358.128 252.625 358.523 253.864 363.717C256.227 373.623 246.774 388.135 248.744 393.601Z" fill="#163560"/>
<path d="M246.948 371.347C249.764 367.394 252.696 365.305 254.625 364.254C254.181 363.108 266.466 348.049 266.466 345.715C266.466 343.351 269.744 326.618 269.744 326.618C269.744 326.618 259.508 327.251 255.964 332.193C251.532 338.374 242.326 362.162 246.948 371.347Z" fill="#1C468A"/>
<path d="M254.626 364.254L275.082 369.592L273.162 373.038C273.162 373.038 248.269 372.864 246.949 371.347C245.63 369.833 254.626 364.254 254.626 364.254Z" fill="#FFB27D"/>
<path d="M289.785 357.781C291.53 360.601 294.633 367.68 298.606 370.007C301.211 371.528 304.749 369.412 306.583 368.296C305.994 367.258 305.317 366.058 304.773 364.581C303.31 364.918 301.528 365.343 300.375 365.69C298.136 366.367 289.785 357.781 289.785 357.781Z" fill="#163560"/>
<path d="M275.081 369.592C275.081 369.592 281.505 367.772 283.035 368.197C284.564 368.622 289.806 372.095 289.071 373.038C288.333 373.98 283.715 372.473 281.59 372.759C279.465 373.045 277.821 374.092 276.291 373.864C274.761 373.64 273.161 373.038 273.161 373.038L275.081 369.592Z" fill="#FFB27D"/>
<path d="M275.08 369.592C275.08 369.592 278.223 367.976 279.117 367.057C279.229 366.942 279.42 366.966 279.507 367.102C279.746 367.479 279.971 368.211 278.869 368.935C277.282 369.979 275.08 369.592 275.08 369.592Z" fill="#FFB27D"/>
<path d="M304.766 378.63H274.798C274.798 377.311 275.867 376.239 277.187 376.239H304.766V378.63Z" fill="#BFC4CE"/>
<path d="M304.682 345.988H351.016L339.903 378.63H293.266L304.682 345.988Z" fill="#E3E3E3"/>
<path d="M351.7 345.991L340.583 378.626H293.949L305.362 345.991H351.7Z" fill="#8C8D8F"/>
<path d="M326.717 362.006C326.428 363.254 325.183 364.265 323.938 364.265C322.69 364.265 321.914 363.254 322.2 362.006C322.489 360.761 323.734 359.747 324.979 359.747C326.227 359.747 327.006 360.761 326.717 362.006Z" fill="#F9DDBF"/>
<path d="M351.699 345.991L340.582 378.626H309.698C330.156 371.646 335.602 350.355 336.517 345.991H351.699Z" fill="#BFC4CE"/>
<path d="M217.183 478.497C217.769 478.497 218.27 478.085 218.37 477.52L224.19 444.538L232.56 397.094L234.901 383.831L228.939 383.661L227.905 391.362L220.642 445.48L216.335 477.558C216.269 478.054 216.667 478.497 217.183 478.497Z" fill="#95C0F4"/>
<path d="M227.904 391.362C231.767 393.067 232.56 397.094 232.56 397.094L234.901 383.831L228.939 383.661L227.904 391.362Z" fill="#78ACEA"/>
<path d="M365.476 478.497C364.891 478.497 364.391 478.085 364.289 477.52L358.472 444.538L350.1 397.094L347.76 383.831L353.72 383.661L354.754 391.362L362.02 445.48L366.323 477.558C366.391 478.054 365.993 478.497 365.476 478.497Z" fill="#95C0F4"/>
<path d="M354.754 391.362C350.893 393.067 350.1 397.094 350.1 397.094L347.76 383.831L353.72 383.661L354.754 391.362Z" fill="#78ACEA"/>
<path d="M213.205 389.04H365.885C367.885 389.04 369.521 387.403 369.521 385.403V382.26C369.521 380.26 367.885 378.624 365.885 378.624H213.205C211.205 378.624 209.568 380.26 209.568 382.26V385.403C209.568 387.403 211.205 389.04 213.205 389.04Z" fill="#78ACEA"/>
<path d="M898.673 478.18H1.01914C0.458546 478.18 0 477.724 0 477.163V476.813C0 476.255 0.458546 475.796 1.01914 475.796H898.673C899.234 475.796 899.693 476.255 899.693 476.813V477.163C899.693 477.724 899.234 478.18 898.673 478.18Z" fill="#2E3552"/>
<path d="M592.44 373.072C592.44 373.072 588.477 377.984 589.718 378.654C590.953 379.324 594.226 380.576 594.998 379.786C595.77 378.997 596.012 373.208 596.012 373.208L592.44 373.072Z" fill="#FFB27D"/>
<path d="M592.6 373.153C592.6 373.153 590.981 373.715 590.345 374.558C589.709 375.398 588.3 376.684 588.644 377.038C588.991 377.395 591.012 375.824 591.012 375.824L592.6 373.153Z" fill="#FFB27D"/>
<path d="M607.41 307.477C607.41 307.477 602.947 349.035 602.549 350.219C602.464 350.474 602.114 351.791 601.621 353.682C600.917 356.386 599.923 360.271 598.981 363.965C597.563 369.544 596.26 374.694 596.26 374.694L592.382 373.415C592.382 373.415 592.181 353.22 593.178 348.569C594.178 343.919 597.365 315.345 598.978 311.501C600.583 307.657 607.41 307.477 607.41 307.477Z" fill="#AEC3FF"/>
<path d="M598.127 407.133L573.781 400.748C570.614 399.914 568.699 396.642 569.529 393.475L572.298 382.923C573.128 379.756 576.4 377.841 579.57 378.674L603.916 385.059C607.087 385.889 608.998 389.162 608.168 392.332L605.399 402.881C604.569 406.051 601.297 407.963 598.127 407.133Z" fill="#09236B"/>
<path d="M597.549 383.359L588.851 381.076L589.45 378.8C589.552 378.409 589.957 378.175 590.348 378.277L592.532 378.848L596.539 379.899L597.621 380.182C597.696 380.202 597.76 380.233 597.825 380.27C598.09 380.437 598.23 380.763 598.148 381.083L597.549 383.359ZM575.51 383.76L572.71 394.431C572.169 396.499 572.789 398.608 574.163 400.061C574.615 400.544 575.153 400.956 575.762 401.265C575.762 401.265 575.762 401.265 575.765 401.265V401.269C576.143 401.462 576.547 401.619 576.979 401.731L601.281 408.106C604.462 408.939 607.748 407.021 608.581 403.84L611.381 393.166C612.214 389.985 610.295 386.699 607.115 385.866L598.747 383.672L599.342 381.396C599.621 380.341 598.985 379.263 597.934 378.988L597.019 378.746L591.926 377.413L590.661 377.079C590.154 376.947 589.623 377.021 589.168 377.287C588.712 377.552 588.385 377.981 588.253 378.488L587.657 380.763L582.81 379.491C582.616 379.44 582.425 379.403 582.235 379.372H582.232H582.228C580.282 379.059 578.35 379.75 577.027 381.093V381.097C576.316 381.814 575.782 382.719 575.51 383.76Z" fill="#09236B"/>
<path d="M594.754 379.895C594.754 379.895 595.835 378.075 595.431 377.439C595.026 376.803 593.566 379.327 593.566 379.327C593.566 379.327 594.563 377.16 594.192 376.803C593.818 376.446 592.291 378.936 592.291 378.936C592.291 378.936 593.243 376.83 592.91 376.759C592.577 376.687 591.444 378.531 591.444 378.531C591.444 378.531 592.032 376.953 591.495 377.031C590.957 377.106 589.794 378.541 589.794 378.541L594.754 379.895Z" fill="#FFB27D"/>
<path d="M601.62 353.682C600.916 356.386 599.923 360.271 598.98 363.965C598.375 362.258 597.603 359.54 597.116 355.812C596.218 348.937 598.977 334.282 598.977 334.282L601.62 353.682Z" fill="#9DB0F4"/>
<path d="M652.691 371.361C652.691 371.361 657.007 374.868 657.541 375.963C658.072 377.059 659.416 381.113 659.344 382.42C659.273 383.729 656.038 379.43 655.085 379.083C654.136 378.736 656.079 380.848 655.861 381.3C655.643 381.753 653.616 380.273 652.844 379.79C652.071 379.307 651.531 376.028 650.377 374.242C649.228 372.459 652.691 371.361 652.691 371.361Z" fill="#FFB27D"/>
<path d="M596.052 476.35H617.571C619.112 475.306 617.156 465.084 617.156 465.084C617.156 465.084 611.281 462.852 610.267 467.387C609.25 471.914 602.787 473.353 599.365 473.908C597.025 474.289 596.283 475.575 596.052 476.35Z" fill="#233862"/>
<path d="M627.967 476.35H649.489C651.03 475.306 649.071 465.084 649.071 465.084C649.071 465.084 643.2 462.852 642.182 467.387C641.165 471.914 634.702 473.353 631.283 473.908C628.94 474.289 628.202 475.575 627.967 476.35Z" fill="#233862"/>
<path d="M601.842 372.058C601.842 372.058 602.808 384.127 603.944 398.636C605.488 418.342 609.659 467.2 609.659 467.2C609.659 467.2 612.39 469.53 618.442 468.254C618.442 468.254 623.592 451.399 625.133 432.163C625.157 431.846 625.181 431.53 625.205 431.21C626.64 411.627 628.868 370.388 628.868 370.388L601.842 372.058Z" fill="#2B478B"/>
<path d="M601.513 367.887C601.513 367.887 602.809 384.127 603.945 398.635L625.134 432.162C625.158 431.846 625.182 431.529 625.205 431.21C626.641 411.626 628.869 370.388 628.869 370.388L601.513 367.887Z" fill="#233862"/>
<path d="M607.688 367.888C607.688 367.888 623.056 406.143 627.968 420.644C631.469 430.972 641.337 467.207 641.337 467.207C641.337 467.207 645.63 468.513 649.236 465.989C649.236 465.989 652.909 428.968 645.49 418.528C641.555 412.991 644.514 360.962 628.56 360.516C612.603 360.071 607.688 367.888 607.688 367.888Z" fill="#2B478B"/>
<path d="M636.972 371.361C630.566 374.977 603.111 374.895 601.842 372.058C599.002 365.721 598.288 333.524 599.628 323.649C599.628 323.649 600.322 308.47 601.842 309.141C611.979 304.48 628.392 308.712 628.392 308.712C632.818 310.015 632.441 320.128 633.675 334.33C633.832 336.16 634.009 338.065 634.206 340.038C635.08 348.808 636.352 358.88 638.281 369.507C638.41 370.208 637.924 370.827 636.972 371.361Z" fill="#AEC3FF"/>
<path d="M620.811 307.005C620.64 309.719 617.099 309.413 612.844 308.44C608.588 307.471 610.129 304.96 610.129 304.96C610.129 304.96 610.191 303.031 610.459 300.718C610.558 299.878 610.68 298.983 610.844 298.116C610.918 297.694 611 297.272 611.095 296.871C611.653 294.48 619.6 296.786 619.545 297.429C619.389 299.164 620.644 304.872 620.811 307.005Z" fill="#FFB27D"/>
<path d="M611.686 311.743L611.35 307.991L616.061 308.882L614.248 312.229L611.686 311.743Z" fill="#233862"/>
<path d="M610.227 303.194L607.41 307.477C607.41 307.477 607.41 310.11 609.856 312.021L613.707 308.436C613.707 308.436 611.217 307.487 610.227 303.194Z" fill="#9DB0F4"/>
<path d="M613.707 308.436C613.707 308.436 614.503 311.3 616.044 312.613C616.044 312.613 622.058 310.997 623.49 307.916L620.361 303.874C620.361 303.874 620.208 306.932 613.707 308.436Z" fill="#9DB0F4"/>
<path d="M619.589 298.779C619.589 298.779 615.762 301.323 610.459 300.718C610.558 299.878 610.68 298.983 610.843 298.116C611.888 297.864 612.765 297.704 612.765 297.704L619.589 298.779Z" fill="#E2915A"/>
<path d="M622.017 295.887C620.146 301.034 613.319 299.72 610.414 298.894C609.594 298.663 609.087 298.469 609.087 298.469C608.189 298.06 607.91 296.492 607.992 294.513C608.145 290.594 609.693 285.063 610.581 283.729C611.918 281.722 614.146 279.685 620.769 282.525C627.392 285.365 624.415 289.291 622.017 295.887Z" fill="#FFB27D"/>
<path d="M627.13 293.244C625.041 294.948 620.551 298.102 620.551 298.102C620.551 298.102 621.051 297.51 621.66 295.809C621.731 295.615 621.752 295.333 621.741 295.033C621.718 294.2 621.918 293.366 622.357 292.655C622.629 292.21 622.728 291.751 622.384 291.424C621.816 290.887 620.847 291.38 620.211 291.815C619.792 292.101 619.245 292.118 618.813 291.853C618.809 291.849 618.806 291.849 618.802 291.846C617.02 290.727 618.989 288.757 617.54 287.121C616.084 285.485 609.805 285.26 610.057 284.236C607.914 283.025 609.264 278.555 609.305 278.317C609.305 278.317 612.38 278.59 616.224 277.63C619.343 276.848 622.782 278.851 623.867 279.675C623.867 279.477 623.837 279.205 623.694 278.913C623.694 278.913 624.167 279.379 624.16 279.923C624.208 279.971 624.228 280.005 624.214 280.015C624.214 280.015 624.834 280.001 625.197 280.243C625.197 280.243 624.932 280.158 624.806 280.318C624.789 280.335 624.772 280.345 624.752 280.358C628.926 283.308 628.865 291.825 627.13 293.244Z" fill="#233862"/>
<path d="M612.146 295.143C612.146 295.143 611.809 295.792 610.122 295.255C610.122 295.255 608.704 294.802 608.938 294.054C608.938 294.054 610.469 293.867 612.146 295.143Z" fill="#E3E3E3"/>
<path d="M611.686 311.743C611.686 311.743 607.924 359.258 607.978 363.217C608.029 367.177 612.145 371.361 612.145 371.361C612.145 371.361 615.421 367.772 616.061 363.986C616.7 360.2 614.247 312.229 614.247 312.229L611.686 311.743Z" fill="#2A4E96"/>
<path d="M628.396 308.712C628.396 308.712 634.464 310.164 639.264 319.383C644.064 328.601 647.853 347.195 650.142 352.1C652.435 357.009 654.007 372.463 654.007 372.463L650.377 374.242C650.377 374.242 641.621 358.403 640.325 353.209C639.625 350.399 628.916 327.904 628.916 327.904L628.396 308.712Z" fill="#AEC3FF"/>
<path d="M636.971 371.361C636.971 371.361 636.971 371.361 636.968 371.361C625.538 369.718 628.814 331.891 629.709 331.741C630.607 331.592 633.893 338.504 633.893 338.504L634.206 340.038C635.08 348.808 636.352 358.88 638.281 369.507C638.41 370.208 637.924 370.827 636.971 371.361Z" fill="#9DB0F4"/>
<path d="M779.57 453.991C779.57 453.991 784.329 458.335 783.4 461.42C782.472 464.506 778.175 466.564 777.597 470.336C777.015 474.105 774.696 476.163 772.607 476.163C770.518 476.163 762.647 476.163 762.647 476.163C762.647 476.163 761.109 473.51 764.82 472.71C768.535 471.911 769.937 467.479 769.705 463.363C769.474 459.25 770.052 453.763 770.052 453.763L777.944 451.936L779.57 453.991Z" fill="#233862"/>
<path d="M721.189 465.223C721.189 465.223 722.043 475.108 719.951 476.136L693.217 476.081C693.217 476.081 693.217 472.996 697.51 472.309C701.806 471.625 709.348 469.111 710.627 463.509C711.902 457.91 721.189 465.223 721.189 465.223Z" fill="#233862"/>
<path d="M698.616 325.614C698.616 325.614 700.024 342.939 701.685 363.764C703.936 392.053 706.644 426.801 706.913 433.383C707.376 444.813 709.236 463.097 709.236 463.097C709.236 463.097 713.645 467.441 722.465 465.611C722.465 465.611 730.33 439.509 732.575 411.891C732.609 411.439 732.643 410.983 732.681 410.527C734.769 382.412 738.018 323.213 738.018 323.213L698.616 325.614Z" fill="#2A4E96"/>
<path d="M698.616 325.615C698.616 325.615 700.024 342.939 701.685 363.765L732.575 411.892C732.609 411.439 732.643 410.983 732.681 410.528C734.769 382.413 738.018 323.213 738.018 323.213L698.616 325.615Z" fill="#233862"/>
<path d="M705.056 327.672C705.056 327.672 730.473 390.413 747.186 419.899C763.901 449.385 769.123 457.613 769.123 457.613C769.123 457.613 778.699 453.841 779.57 451.269C779.57 451.269 773.178 394.345 761.986 380.47C755.662 372.629 750.206 355.233 750.478 347.001C750.951 332.806 745.621 316.355 745.621 316.355L705.056 327.672Z" fill="#2A4E96"/>
<path d="M684.759 328.594C684.759 328.594 680.014 335.02 679.663 336.735C679.313 338.449 678.905 344.572 679.473 346.365C680.041 348.157 683 341.017 684.198 340.194C685.395 339.371 683.449 343.004 683.915 343.555C684.381 344.109 686.667 341.323 687.569 340.374C688.47 339.422 688.045 334.666 689.008 331.771C689.967 328.877 684.759 328.594 684.759 328.594Z" fill="#FFB27D"/>
<path d="M705.689 235.205C705.689 235.205 699.276 294.908 698.705 296.609C698.579 296.98 698.076 298.871 697.368 301.589C696.358 305.47 694.932 311.052 693.579 316.356C691.538 324.373 689.333 331.306 689.333 331.306C689.333 331.306 688.364 331.932 686.03 331.731C684.435 331.595 683.574 330.235 683.574 330.235C683.574 330.235 683.809 300.922 685.241 294.241C686.677 287.557 691.255 246.512 693.572 240.988C695.881 235.464 705.689 235.205 705.689 235.205Z" fill="#E3E3E3"/>
<path d="M697.369 301.589C696.358 305.47 694.933 311.052 693.579 316.355C692.708 313.903 691.599 309.998 690.899 304.647C689.609 294.765 693.572 273.719 693.572 273.719L697.369 301.589Z" fill="#DCEAFF"/>
<path d="M748.155 326.985C738.95 332.176 699.511 332.061 697.685 327.986C693.606 318.883 692.582 272.627 694.507 258.438C694.507 258.438 695.504 236.633 697.685 237.593C712.254 230.902 735.831 236.98 735.831 236.98C742.189 238.851 741.645 253.38 743.417 273.783C743.645 276.409 743.9 279.151 744.182 281.981C745.437 294.581 747.264 309.055 750.036 324.322C750.224 325.325 749.523 326.217 748.155 326.985Z" fill="#E3E3E3"/>
<path d="M724.939 234.528C724.694 238.426 719.608 237.984 713.488 236.589C707.376 235.198 709.59 231.589 709.59 231.589C709.59 231.589 709.679 228.816 710.066 225.496C710.206 224.292 710.383 223.006 710.614 221.761C710.723 221.149 710.842 220.55 710.981 219.968C711.781 216.536 723.197 219.849 723.115 220.771C722.894 223.265 724.697 231.463 724.939 234.528Z" fill="#FFB27D"/>
<path d="M711.83 241.334L711.347 235.946L718.116 237.222L715.51 242.035L711.83 241.334Z" fill="#233862"/>
<path d="M709.732 229.051L705.688 235.205C705.688 235.205 705.687 238.991 709.198 241.736L714.729 236.586C714.729 236.586 711.154 235.222 709.732 229.051Z" fill="#DCEAFF"/>
<path d="M714.73 236.586C714.73 236.586 715.877 240.698 718.091 242.586C718.091 242.586 726.728 240.263 728.79 235.841L724.289 230.031C724.289 230.031 724.071 234.426 714.73 236.586Z" fill="#DCEAFF"/>
<path d="M723.18 222.71C723.18 222.71 717.683 226.364 710.066 225.496C710.206 224.292 710.383 223.006 710.614 221.761C712.118 221.394 713.376 221.166 713.376 221.166L723.18 222.71Z" fill="#E2915A"/>
<path d="M726.669 218.557C723.982 225.952 714.175 224.064 710.001 222.877C708.824 222.543 708.096 222.265 708.096 222.265C706.807 221.679 706.405 219.428 706.521 216.584C706.742 210.954 708.967 203.004 710.239 201.089C712.161 198.208 715.362 195.279 724.873 199.358C734.387 203.44 730.115 209.08 726.669 218.557Z" fill="#FFB27D"/>
<path d="M734.018 214.757C731.014 217.206 724.565 221.737 724.565 221.737C724.565 221.737 725.282 220.89 726.16 218.444C726.259 218.169 726.289 217.761 726.276 217.332C726.242 216.131 726.531 214.937 727.16 213.913C727.551 213.277 727.694 212.614 727.198 212.145C726.381 211.372 724.99 212.083 724.078 212.709C723.476 213.121 722.687 213.145 722.068 212.76C722.064 212.757 722.061 212.753 722.054 212.75C719.489 211.144 722.323 208.314 720.238 205.964C718.149 203.617 709.128 203.293 709.492 201.82C706.41 200.079 708.352 193.656 708.407 193.316C708.407 193.316 712.829 193.707 718.346 192.33C722.83 191.204 727.769 194.082 729.334 195.269C729.334 194.983 729.286 194.588 729.082 194.173C729.082 194.173 729.762 194.844 729.749 195.626C729.817 195.694 729.847 195.742 729.827 195.752C729.827 195.752 730.718 195.735 731.239 196.082C731.239 196.082 730.858 195.959 730.677 196.187C730.654 196.214 730.63 196.231 730.599 196.248C736.596 200.484 736.508 212.723 734.018 214.757Z" fill="#09236B"/>
<path d="M712.488 217.489C712.488 217.489 712.005 218.417 709.58 217.645C709.58 217.645 707.546 216.999 707.882 215.924C707.882 215.924 710.08 215.655 712.488 217.489Z" fill="#E3E3E3"/>
<path d="M711.828 241.335C711.828 241.335 706.426 309.596 706.501 315.284C706.576 320.972 712.488 326.986 712.488 326.986C712.488 326.986 717.196 321.829 718.114 316.39C719.036 310.947 715.508 242.036 715.508 242.036L711.828 241.335Z" fill="#2A4E96"/>
<path d="M748.155 326.986C748.152 326.986 748.152 326.986 748.149 326.986C731.729 324.622 736.433 270.28 737.722 270.065C739.012 269.851 743.733 279.781 743.733 279.781L744.182 281.982C745.437 294.581 747.264 309.056 750.036 324.322C750.224 325.326 749.523 326.217 748.155 326.986Z" fill="#DCEAFF"/>
<path d="M796.422 367.465L761.701 377.568C757.184 378.881 752.411 376.262 751.095 371.741L746.717 356.696C745.404 352.178 748.023 347.406 752.544 346.089L787.262 335.986C791.782 334.67 796.555 337.292 797.868 341.81L802.249 356.855C803.562 361.376 800.943 366.149 796.422 367.465Z" fill="#09236B"/>
<path d="M778.157 338.589L765.755 342.202L764.809 338.953C764.649 338.395 764.972 337.807 765.53 337.644L768.646 336.739L774.358 335.072L775.902 334.626C776.007 334.596 776.113 334.582 776.215 334.585C776.667 334.592 777.079 334.892 777.212 335.344L778.157 338.589ZM751.291 355.356L755.72 370.575C756.577 373.521 758.9 375.664 761.663 376.443C762.581 376.702 763.544 376.811 764.523 376.746C764.527 376.746 764.527 376.746 764.527 376.746H764.53C765.139 376.705 765.755 376.603 766.367 376.423L801.023 366.337C805.561 365.017 808.191 360.227 806.871 355.69L802.442 340.47C801.122 335.933 796.332 333.303 791.795 334.623L779.862 338.096L778.919 334.847C778.484 333.347 776.906 332.483 775.405 332.919L774.096 333.3L766.837 335.412L765.034 335.939C764.312 336.147 763.71 336.633 763.343 337.297C762.979 337.96 762.894 338.729 763.105 339.45L764.051 342.699L757.135 344.709C756.863 344.787 756.597 344.879 756.339 344.984L756.336 344.988H756.332C753.703 346.042 751.832 348.318 751.192 350.951V350.954C750.849 352.363 750.859 353.87 751.291 355.356Z" fill="#09236B"/>
<path d="M767.755 328.874C767.755 328.874 766.68 337.874 768.697 337.745C770.714 337.616 775.654 336.65 775.99 335.099C776.327 333.548 772.208 326.316 772.208 326.316L767.755 328.874Z" fill="#FFB27D"/>
<path d="M768.013 328.85C768.013 328.85 766.469 330.768 766.336 332.279C766.204 333.789 765.465 336.429 766.159 336.599C766.85 336.769 768.115 333.313 768.115 333.313L768.013 328.85Z" fill="#FFB27D"/>
<path d="M735.834 236.981C735.834 236.981 744.552 239.07 751.448 252.312C758.34 265.555 763.786 292.265 767.078 299.317C770.368 306.365 772.875 327.52 772.875 327.52C772.875 327.52 772.361 328.571 770.586 328.956C769.211 329.252 767.796 329.136 767.796 329.136C767.796 329.136 754.832 308.369 752.972 300.909C751.965 296.871 736.579 264.555 736.579 264.555L735.834 236.981Z" fill="#E3E3E3"/>
<path d="M161.535 467.547L160.229 458.134L165.717 453.549L167.446 466.009L161.535 467.547Z" fill="#FFB27D"/>
<path d="M179.761 475.952H157.385C157.385 475.952 156.849 472.54 158.018 469.955C159.138 467.472 160.881 465.938 161.04 464.036C162.461 465.502 164.211 466.444 167.446 466.009C167.842 466.652 170.004 470.091 171.328 471.04C172.791 472.091 179.311 471.717 179.761 475.952Z" fill="#233862"/>
<path d="M175.266 340.473C173.803 352.243 172.606 363.343 171.632 373.684C166.424 428.794 167.446 462.478 167.446 462.478C167.446 462.478 167.07 463.474 163.842 463.488C162.017 463.498 160.23 463.1 160.23 463.1C160.23 463.1 148.57 427.114 149.47 406.636C149.578 404.173 149.867 401.935 150.38 400.006C153.177 389.529 140.03 349.46 154.322 334.537C168.61 319.617 175.939 335.071 175.266 340.473Z" fill="#2A4E96"/>
<path d="M175.266 340.474C173.803 352.243 172.606 363.343 171.632 373.684L149.47 406.636C149.578 404.173 149.867 401.935 150.38 400.006C153.177 389.529 140.03 349.461 154.322 334.538C168.61 319.618 175.939 335.072 175.266 340.474Z" fill="#0F1934"/>
<path d="M192.875 228.194C192.875 228.194 192.336 225.503 191.729 223.452C191.46 222.543 193.333 216.577 194.629 215.845C195.926 215.111 199.302 219.128 198.346 222.21C197.856 223.795 197.049 228.952 197.049 228.952L192.875 228.194Z" fill="#FFB27D"/>
<path d="M192.876 228.194C192.876 228.194 192.172 226.633 191.536 226.381C190.899 226.13 190.217 223.578 189.75 222.568C189.75 222.568 190.201 221.908 190.991 222.758C191.472 223.276 192.546 224.799 192.546 224.799L192.876 228.194Z" fill="#FFB27D"/>
<path d="M100.507 237.239C100.37 237.521 100.179 238.028 100.009 238.504C100.006 238.375 100.004 238.246 100.003 238.12C99.9941 237.174 96.4571 232.017 95.0032 231.694C93.5486 231.371 91.4961 236.201 93.3125 238.872C94.2456 240.243 96.5254 244.937 96.5254 244.937L100.295 242.991C100.295 242.991 100.512 241.294 101.046 240.865C101.581 240.437 101.487 237.8 101.637 236.695C101.637 236.695 101.013 236.195 100.507 237.239Z" fill="#FFB27D"/>
<path d="M124.01 464.723C123.693 461.709 123.615 453.773 123.615 453.773C123.615 453.773 131.701 451.188 131.404 452.963C129.941 461.689 130.338 466.009 130.338 466.009L127.068 467.961L124.01 464.723Z" fill="#FFB27D"/>
<path d="M168.512 339.912C168.512 339.912 137.274 425.543 131.125 462.686C131.125 462.686 129.7 463.665 127.043 463.339C124.029 462.971 123.203 460.876 123.203 460.876C123.203 460.876 117.559 416.358 128.776 400.904C136.482 390.284 125.452 343.65 143.401 339.912C161.349 336.174 168.512 339.912 168.512 339.912Z" fill="#09236B"/>
<path d="M162.964 257.541C162.963 257.537 162.963 257.537 162.963 257.537C162.958 257.5 162.949 257.466 162.937 257.428C162.755 256.673 162.555 255.932 162.341 255.197C162.34 255.194 162.34 255.194 162.34 255.194C161.687 252.942 160.909 250.799 160.069 248.904C159.586 247.819 159.086 246.812 158.573 245.917C158.495 245.778 158.419 245.652 158.345 245.519L158.341 245.516C157.134 243.485 155.893 242.083 154.774 241.651C152.731 240.862 150.459 241.08 148.895 241.407C149.238 240.927 150.017 240.658 150.017 240.658C149.016 240.655 146.977 241.951 146.977 241.951C132.59 238.733 133.43 259.085 134.41 263.698C135.386 268.31 130.754 270.552 124.221 275.274C111.754 284.278 111.962 293.826 111.962 293.826C112.075 293.874 112.198 293.929 112.325 293.993C112.827 292.758 113.891 290.418 115.006 289.925C114.974 290.034 114.067 293.064 113.81 294.758C115.709 295.806 118.337 297.425 121.191 299.256C121.191 299.256 121.191 299.256 121.194 299.259C125.013 301.701 129.227 304.515 132.604 306.797C132.444 305.868 132.285 304.542 132.521 303.793L133.597 307.127L133.738 307.562C135.893 309.022 137.594 310.192 138.457 310.791C138.546 310.852 138.624 310.906 138.695 310.954C138.947 311.124 139.082 311.219 139.082 311.219C138.795 310.042 140.053 306.971 142.164 303.099C142.309 302.831 142.462 302.555 142.619 302.276C143.3 301.052 144.061 299.762 144.881 298.432C145.175 297.953 145.474 297.473 145.783 296.983C145.783 296.98 145.786 296.98 145.786 296.98C146.034 296.585 146.284 296.194 146.544 295.796L146.546 295.793C147.158 294.847 147.791 293.894 148.437 292.942C150.109 290.472 151.88 288.02 153.629 285.771C156.17 282.495 158.663 279.648 160.751 277.784C160.819 277.645 160.884 277.502 160.942 277.355C161.269 276.597 161.52 275.753 161.714 274.893C161.774 274.638 161.828 274.376 161.875 274.117C162.396 271.379 162.406 268.661 162.399 268.018C162.566 270.661 162.5 272.658 162.323 274.165C162.283 274.498 162.239 274.804 162.189 275.09H162.189C162.078 275.736 161.95 276.267 161.811 276.709C162.153 276.284 162.454 275.821 162.719 275.311C162.893 274.981 163.052 274.631 163.192 274.267C164.876 269.967 164.423 263.555 162.964 257.541Z" fill="#16181D"/>
<path d="M160.26 278.161C160.309 278.175 156.233 281.124 152.775 280.709C149.522 280.321 146.878 276.573 146.919 276.559C148.204 276.1 148.315 274.222 147.124 266.412L147.74 266.439L158.097 266.936C158.097 266.936 158.339 270.137 158.776 273.12C159.142 275.623 159.647 277.977 160.26 278.161Z" fill="#FFB27D"/>
<path d="M158.097 266.936C158.097 266.936 158.339 270.137 158.776 273.121C153.123 273.797 149.383 269.107 147.74 266.44L158.097 266.936Z" fill="#ED975D"/>
<path d="M146.538 265.5C146.538 265.5 142.895 261.276 141.593 257.394C140.664 254.625 140.545 243.862 151.371 243.805C151.371 243.805 154.495 243.648 157.68 245.172C160.213 246.386 164.033 249.247 161.689 259.003L161.186 262.259L146.538 265.5Z" fill="#16181D"/>
<path d="M176.57 338.269C176.57 338.269 163.093 346.277 146.171 342.161C145.972 342.11 132.237 339.919 132.237 339.919C132.473 339.273 134.248 328.663 134.48 328.071C137.482 320.322 142.969 278.277 147.553 276.202C148.724 277.478 152.069 278.348 154.932 278.097C158.229 277.804 159.333 276.379 159.059 274.848C162.708 276.573 165.511 278.175 165.511 278.175C168.846 283.172 176.57 338.269 176.57 338.269Z" fill="#E3E3E3"/>
<path d="M160.397 269.48C160.397 269.48 147.109 271.681 145.866 263.384C144.623 255.091 142.07 249.788 150.502 248.029C158.933 246.274 161.059 249.193 162.148 251.859C163.236 254.53 163.822 268.694 160.397 269.48Z" fill="#FFB27D"/>
<path d="M156.54 246.924C156.54 246.924 154.341 257.2 148.958 259.473C143.575 261.745 140.924 260.605 140.924 260.605C140.924 260.605 144.71 256.557 144.715 250.472C144.715 250.472 153.099 242.702 156.54 246.924Z" fill="#16181D"/>
<path d="M155.752 247.849C155.752 247.849 158.799 249.618 159.777 251.632C160.755 253.645 161.701 257.952 162.947 257.615C162.947 257.615 164.71 250.591 161.066 247.305C157.201 243.825 155.752 247.849 155.752 247.849Z" fill="#16181D"/>
<path d="M197.14 228.384C196.6 228.194 195.804 227.744 194.765 227.649C193.84 227.568 192.677 227.87 192.677 227.87C192.677 227.87 188.928 251.172 188.65 252.407C188.372 253.642 172.57 271.443 168.31 271.371C164.463 271.306 159.905 274.276 159.06 274.848C159.06 274.848 168.019 293.792 168.465 297.35C168.951 301.221 173.589 360.852 173.589 360.852C173.589 360.852 173.313 363.625 178.496 362.135C183.679 360.641 184.976 359.41 184.976 359.41C184.976 359.41 180.215 312.463 179.216 297.867C179.082 295.907 178.762 294.091 178.306 292.417C177.867 290.805 178.213 289.08 179.198 287.73C185.751 278.732 196.099 264.159 196.676 261.061C197.523 256.509 197.14 228.384 197.14 228.384Z" fill="#2B478B"/>
<path d="M142.652 475.952H120.276C120.276 475.952 119.74 472.54 120.909 469.955C122.028 467.472 123.771 465.938 123.93 464.036C125.352 465.502 127.102 466.444 130.337 466.009C130.733 466.652 132.895 470.091 134.219 471.04C135.681 472.091 142.201 471.717 142.652 475.952Z" fill="#233862"/>
<path d="M158.023 299.191C157.269 294.551 147.641 275.917 147.641 275.917C147.641 275.917 141.554 274.097 137.548 275.549C133.542 276.998 112.815 265.296 112.151 264.218C111.487 263.143 100.385 242.458 100.385 242.458C100.385 242.458 99.4648 241.923 97.9899 242.692C96.5309 243.451 96.5244 244.937 96.5244 244.937C96.5244 244.937 105.092 270.981 107.372 275.012C108.746 277.44 120.303 285.9 129.262 292.234C130.973 293.442 131.871 295.503 131.59 297.578C130.386 306.484 130.079 311.502 128.693 326.782C127.544 339.46 127.104 364.006 127.104 364.006C127.104 364.006 137.13 367.476 144.05 367.935C150.97 368.398 152.478 361.101 152.478 361.101C152.478 361.101 158.798 303.963 158.023 299.191Z" fill="#2B478B"/>
<path d="M156.045 265.378C156.045 265.378 157.659 266.327 159.565 266.041C160.871 265.844 161.168 264.296 161.168 264.296C161.168 264.296 160.26 264.01 158.812 264.303C157.363 264.592 156.045 265.378 156.045 265.378Z" fill="#E3E3E3"/>
<path d="M580.456 107.234C580.456 107.234 574.241 96.185 580.456 93.9365C586.674 91.6879 589.487 93.763 589.783 96.2768C590.079 98.7941 587.415 108.713 587.415 108.713L580.456 107.234Z" fill="#FFB27D"/>
<path d="M585.439 177.9C574.105 179.944 563.682 180.89 554.273 181.101C545.343 181.301 537.332 180.839 530.318 180.022C528.434 179.808 526.624 179.563 524.886 179.301C506.534 176.519 496.396 171.583 496.396 171.583C496.396 171.583 513.167 136.478 526.716 137.825C542.608 139.41 569.539 153.673 572.217 149.673C575.23 145.165 577.755 106.515 577.755 106.515C584.799 101.692 589.007 106.777 589.007 106.777C589.007 106.777 602.774 174.774 585.439 177.9Z" fill="#09236B"/>
<path d="M585.439 177.9C574.105 179.944 563.682 180.89 554.273 181.101C545.344 181.301 537.333 180.839 530.319 180.022C526.09 166.576 523.049 152.84 531.553 161.123C546.555 175.726 585.439 177.9 585.439 177.9Z" fill="#101D41"/>
<path d="M495.125 461.335C495.125 461.335 493.921 475.293 496.87 476.742L534.622 476.667C534.622 476.667 534.622 472.309 528.557 471.34C522.495 470.374 511.841 466.822 510.038 458.917C508.235 451.008 495.125 461.335 495.125 461.335Z" fill="#233862"/>
<path d="M522.84 292.435C522.653 301.558 522.215 310.97 521.357 319.43C517.279 359.57 515.847 408.072 515.262 417.423C514.244 433.652 511.04 459.583 511.04 459.583C511.04 459.583 504.679 465.621 492.28 462.74C492.28 462.74 482.01 425.393 479.714 386.066C479.68 385.42 479.646 384.77 479.612 384.124C479.347 378.923 479.068 372.98 478.782 366.568C476.894 323.628 474.843 259.843 474.843 259.843L522.215 248.72C522.215 248.72 523.307 269.684 522.84 292.435Z" fill="#2A4E96"/>
<path d="M522.84 292.434C510.833 313.147 487.949 351.311 478.782 366.567C476.894 323.628 474.843 259.843 474.843 259.843L522.215 248.719C522.215 248.719 523.307 269.684 522.84 292.434Z" fill="#233862"/>
<path d="M402.888 252.308C402.888 252.308 395.179 261.374 394.485 263.888C393.791 266.401 392.557 275.457 393.22 278.178C393.88 280.899 399.006 270.589 400.87 269.49C402.734 268.388 399.472 273.589 400.108 274.457C400.745 275.324 404.425 271.422 405.861 270.099C407.296 268.779 407.153 261.67 408.878 257.465C410.603 253.261 402.888 252.308 402.888 252.308Z" fill="#FFB27D"/>
<path d="M401.081 445.476C401.081 445.476 394.359 451.606 395.672 455.963C396.982 460.321 403.047 463.226 403.867 468.55C404.686 473.877 407.962 476.782 410.912 476.782C413.864 476.782 424.978 476.782 424.978 476.782C424.978 476.782 427.148 473.033 421.902 471.904C416.66 470.774 414.681 464.515 415.011 458.709C415.337 452.899 414.517 445.153 414.517 445.153L403.373 442.571L401.081 445.476Z" fill="#233862"/>
<path d="M514.752 260.816C514.752 260.816 470.404 355.703 446.803 397.336C423.206 438.969 415.831 450.586 415.831 450.586C415.831 450.586 402.309 445.262 401.081 441.629C401.081 441.629 410.106 361.254 425.91 341.661C434.839 330.592 445.33 297.367 445.82 285.747C446.313 274.127 456.671 246.397 456.671 246.397L514.752 260.816Z" fill="#2A4E96"/>
<path d="M527.716 265.289C527.716 265.289 510.082 277.079 485.12 275.984C474.167 275.508 452.44 272.402 448.933 263.69C448.11 261.642 448.712 259.047 449.947 255.063C453.155 244.709 460.625 224.989 458.369 181.267C458.159 177.202 458.274 173.375 458.662 169.797C461.012 148.261 473.354 135.508 485.283 131.341C514.375 121.17 524.073 135.26 524.073 135.26C524.073 135.26 536.931 145.448 538.87 166.708C542.745 209.236 527.716 265.289 527.716 265.289Z" fill="#09236B"/>
<path d="M493.809 128.898C493.809 128.898 507.157 137.015 521.634 134.719C521.634 134.719 524.499 133.991 523.09 130.633C523.971 127.919 523.866 128.164 524.376 126.15C525.645 121.51 526.033 118.833 526.033 118.833L517.818 110.199L510.035 101.947C507.885 121.67 493.809 128.898 493.809 128.898Z" fill="#FFB27D"/>
<path d="M508.789 109.427C508.789 109.427 513.259 121.377 524.376 126.15C525.644 121.51 526.471 116.659 526.471 116.659L517.817 110.199L508.789 109.427Z" fill="#ED985F"/>
<path d="M535.25 118.418C535.25 118.418 509.772 121.602 507.982 105.944C506.193 90.2865 501.7 80.1529 517.892 77.4588C534.084 74.7612 537.934 80.391 539.822 85.4765C541.71 90.5586 541.833 117.187 535.25 118.418Z" fill="#FFB27D"/>
<path d="M499.938 74.9145C499.717 74.6423 499.197 74.4076 498.02 74.2988C498.02 74.2988 498.986 73.7443 500.248 73.7613C500.554 72.1285 501.537 69.2575 504.387 68.6588C504.387 68.6588 502.84 69.4106 502.578 71.1488C505.973 67.9138 513.075 65.7333 532.424 67.9989C557.927 70.9855 548.878 87.0415 545.49 88.8682C542.105 90.6949 533.975 85.0277 527.788 85.2828C521.6 85.5414 520.086 94.4096 517.95 95.5559C515.81 96.6989 516.715 94.566 513.933 93.1815C511.147 91.7936 510.701 96.4744 511.405 99.5563C512.106 102.638 508.065 106.516 508.065 106.516C508.065 106.516 508.065 106.516 504.292 102.131C500.52 97.75 497.492 79.6734 499.424 75.918C499.595 75.588 499.765 75.2512 499.938 74.9145Z" fill="#2C3A64"/>
<path d="M577.755 99.9028L534.499 100.291L534.203 93.7831L577.323 90.4393L577.755 99.9028Z" fill="#2A4E96"/>
<path d="M610.408 100.992L563.312 101.672L562.774 89.8408L609.735 86.201L610.408 100.992Z" fill="#2A4E96"/>
<path d="M642.162 101.92L602.447 101.968L601.723 85.9969L641.274 82.3979L642.162 101.92Z" fill="#233862"/>
<path d="M642.73 104.614C643.954 104.56 644.904 103.522 644.846 102.298L643.914 81.7787C643.859 80.5541 642.822 79.605 641.597 79.6594C640.369 79.7173 639.423 80.7548 639.478 81.9794L640.41 102.498C640.464 103.723 641.505 104.672 642.73 104.614Z" fill="#233862"/>
<path d="M534.363 101.678C533.274 101.726 532.352 100.886 532.301 99.7971L532.06 94.4735C532.009 93.3815 532.852 92.4597 533.941 92.4087C535.033 92.361 535.955 93.2046 536.002 94.2932L536.244 99.6168C536.295 100.705 535.451 101.627 534.363 101.678Z" fill="#2A4E96"/>
<path d="M449.946 255.064C453.154 244.709 460.624 224.99 458.369 181.268C458.158 177.203 458.274 173.376 458.661 169.797H458.665C468.237 168.974 482.875 179.322 482.875 179.322C482.875 179.322 473.86 234.273 449.946 255.064Z" fill="#2A4E96"/>
<path d="M493.808 128.899C493.808 128.899 469.258 133.117 456.454 148.747C443.65 164.378 423.053 186.418 418.185 194.136C413.314 201.855 399.796 254.38 399.796 254.38C399.796 254.38 400.691 256.067 404.419 257.05C407.987 257.993 410.576 256.533 410.576 256.533C410.576 256.533 428.486 225.881 435.228 210.566C438.027 204.205 486.464 179.009 504.673 181.621C511.824 182.645 493.808 128.899 493.808 128.899Z" fill="#09236B"/>
<path d="M577.496 88.5754C577.496 88.5754 582.775 91.807 585.936 90.4395C589.092 89.072 588.813 87.8236 588.813 87.8236C588.813 87.8236 579.272 85.1737 577.496 88.5754Z" fill="#FFB27D"/>
<path d="M517.63 146.019C517.63 146.019 506.857 214.039 430.418 233.844L422.091 250.271L436.718 252.747C436.718 252.747 523.743 227.534 522.57 144.818L517.63 146.019Z" fill="#2546A3"/>
<path d="M515.959 135.165L512.432 135.508V140.618L517.629 146.02L522.572 144.819V137.73L519.017 135.165H515.959Z" fill="#09236B"/>
<path d="M502.115 121.64C502.115 121.64 498.7 122.408 490.89 128.899C490.89 128.899 498.656 145.38 515.038 147.353C515.038 147.353 514.776 139.706 515.96 135.165C515.96 135.165 502.976 130.515 502.115 121.64Z" fill="#2C499C"/>
<path d="M515.96 135.165C515.96 135.165 523.954 139.41 524.546 146.02C524.546 146.02 527.6 141.179 526.716 137.828C525.828 134.474 523.09 130.634 523.09 130.634C523.09 130.634 523.362 134.671 515.96 135.165Z" fill="#2C499C"/>
</svg>
