<?xml version="1.0" encoding="UTF-8"?>
<svg id="SVGDoc" width="398" height="106" xmlns="http://www.w3.org/2000/svg" version="1.1" xmlns:xlink="http://www.w3.org/1999/xlink" xmlns:avocode="https://avocode.com/" viewBox="0 0 398 106"><defs></defs><desc>Generated with Avocode.</desc><g><g><title>Group 67</title><g><title>Group 37</title><g><title>Group 23</title><g><title>Group 17</title><g><title>g4</title><g><title>path6</title><path d="M0,47.1968v0v-47.1968v0h164.815c-84.1127,10.1967 -143.1727,26.5482 -164.815,47.1968z" fill="#a8aaac" fill-opacity="1"></path></g><g><title>path8</title><path d="M67.37312,72.074c-1.39058,-3.5093 -1.87375,-7.0789 -1.61726,-10.7988c1.46315,-20.9357 46.14454,-37.6762 114.25514,-49.4352c-10.852,5.87313 -18.2483,17.5406 -18.2483,30.9789c0,12.2262 6.1193,22.9856 15.3973,29.2556l-109.78688,-0.0005v0z" fill="#09236b" fill-opacity="1"></path></g><g><title>g10</title><g><title>path12</title><path d="M4.01065,77.4464c10.42885,-16.8582 28.97005,-28.3582 46.37395,-36.85519c1.9775,-0.96727 0.2487,-3.9137 -1.7293,-2.95024c-17.8951,8.73559 -36.878,20.74343 -47.61277,38.08053c-1.15479,1.8807 1.80533,3.5945 2.9643,1.7249z" fill="#a8aaac" fill-opacity="1"></path></g><g><title>path14</title><path d="M61.77509,35.1075c10.77231,-5.24353 22.57141,-8.77763 34.08281,-11.99995c1.7676,-0.49588 1.0093,-3.247 -0.76,-2.74712c-11.7565,3.29071 -23.7491,6.92701 -34.76885,12.28677c-1.65068,0.8014 -0.20691,3.2605 1.44395,2.4608l0.00192,-0.0005v0z" fill="#a8aaac" fill-opacity="1"></path></g><g><title>path16</title><path d="M105.11165,20.20094c8.87235,-2.42205 17.78145,-4.66569 26.75075,-6.74024c1.4255,-0.33288 0.8152,-2.53074 -0.6097,-2.19616c-8.9655,2.07228 -17.87835,4.31439 -26.75131,6.73892c-1.42496,0.3874 -0.81528,2.58736 0.60968,2.20015l0.00058,-0.00191v0z" fill="#a8aaac" fill-opacity="1"></path></g><g><title>path18</title><path d="M137.57604,11.93168c4.82397,-0.90438 9.66886,-1.81979 14.51386,-2.66926c1.0853,-0.18999 0.608,-1.83913 -0.4541,-1.64686c-4.8448,0.8451 -9.69196,1.76275 -14.51764,2.66903c-1.08088,0.2031 -0.6268,1.85055 0.45788,1.64764z" fill="#a8aaac" fill-opacity="1"></path></g><g><title>path20</title><path d="M157.62071,8.15685c3.79971,-0.60969 7.59978,-1.28606 11.39929,-1.82185c0.9124,-0.12939 0.5343,-1.50097 -0.3796,-1.3771c-3.80009,0.54111 -7.60035,1.21598 -11.39987,1.82397c-0.90799,0.14553 -0.52989,1.51768 0.38019,1.37556v-0.00058v0z" fill="#a8aaac" fill-opacity="1"></path></g><g><title>path22</title><path d="M172.72631,5.48308c2.58412,-0.39481 5.14711,-0.77061 7.73275,-1.12818c0.72065,-0.10089 0.39694,-1.20058 -0.30376,-1.09818c-2.58394,0.3532 -5.15078,0.73338 -7.7349,1.12877c-0.7178,0.10829 -0.41626,1.20856 0.30591,1.09817z" fill="#a8aaac" fill-opacity="1"></path></g></g></g><g><title>g24</title><g><title>path26</title><path d="M271.7979,51.7113c0,-1.9927 -0.405,-3.6551 -1.1724,-5.0075c-0.7847,-1.3777 -1.8145,-2.5269 -3.1292,-3.4598c-1.1305,-0.8117 -2.493,-1.4934 -4.1307,-2.0467c-1.6509,-0.5665 -3.0682,-0.925 -4.2979,-1.1017l-0.4195,-0.0593v0v-1.3222v0l0.3878,-0.0798c3.3266,-0.6899 5.9883,-2.0384 8.0613,-4.0488c2.0461,-2.0181 3.0586,-4.3431 3.0645,-7.1001c-0.0133,-3.68058 -1.8145,-6.47845 -5.6011,-8.59708c-3.7713,-2.09983 -9.5931,-3.19211 -17.4148,-3.18831c-4.3796,0 -8.5594,0.39746 -12.5571,1.20095c-3.77276,0.75029 -6.54308,1.42136 -8.31022,1.99495l-0.00383,9.70289v0h0.86277c0.63838,-0.2721 1.55987,-0.6707 2.73385,-1.1854c1.27315,-0.5533 2.63732,-1.0562 4.13619,-1.5183c1.59424,-0.47666 3.22824,-0.87735 4.89404,-1.19883c1.6857,-0.32109 3.4468,-0.48049 5.2973,-0.48049c3.2869,-0.00057 5.9469,0.38778 7.9891,1.18918c2.0466,0.78464 3.2493,2.24044 3.232,4.15554c0.0114,2.0784 -1.0201,3.741 -2.9147,4.7535c-1.9146,1.0336 -4.7668,1.5048 -8.6258,1.5086h-7.8576v0v8.0687v0h8.2724c4.6397,0.0038 7.8787,0.5095 9.824,1.6512c1.9023,1.117 2.913,2.9605 2.8995,5.2899c0.0171,2.6977 -1.3586,4.8068 -3.9174,6.0718c-2.5308,1.2732 -5.8709,1.8888 -10.0394,1.8888c-3.2508,0 -6.57,-0.5757 -9.96143,-1.7062c-3.29984,-1.1079 -5.9662,-2.2457 -8.04076,-3.4237l-0.77881,-0.0038v0v10.4864c2.88241,0.9614 6.05514,1.7138 9.50735,2.2836c3.58525,0.581 7.36005,0.8739 11.32555,0.8739c8.7054,0.0038 15.3325,-1.4099 19.8904,-4.1759c4.5772,-2.7802 6.7789,-6.513 6.7946,-11.4156z" fill="#09236b" fill-opacity="1"></path></g><g><title>path28</title><path d="M212.7513,65.8532c1.5408,-0.3846 3.0245,-0.8381 4.4857,-1.3891c1.3281,-0.5056 2.5323,-0.9596 3.5832,-1.3565l-0.0038,-11.079v0h-0.7568c-0.7368,0.5494 -1.5904,1.1633 -2.563,1.8473c-1.0697,0.7444 -2.282,1.4607 -3.6553,2.1716c-1.2975,0.7087 -2.8824,1.3281 -4.7254,1.8903c-1.8752,0.5698 -3.8417,0.8548 -5.8995,0.8548c-1.9874,0 -3.9881,-0.2903 -5.9657,-0.8721c-2.0191,-0.5854 -3.8491,-1.531 -5.4697,-2.8381c-1.7009,-1.3665 -3.0725,-3.1523 -4.1098,-5.3562c-1.0448,-2.2231 -1.5673,-4.9397 -1.5673,-8.1415c0,-3.0418 0.5052,-5.7093 1.5065,-7.9756c0.994,-2.248 2.2721,-4.0624 3.87,-5.4072c1.697,-1.4613 3.5229,-2.4985 5.4321,-3.10646c1.8985,-0.59734 3.9654,-0.88556 6.2091,-0.88556c1.9077,0 3.7393,0.26391 5.4756,0.78488c1.7349,0.5164 3.3246,1.14544 4.7744,1.88644c1.4428,0.7292 2.7209,1.486 3.8476,2.2571c1.0642,0.7142 1.9589,1.3412 2.6863,1.8679l0.9145,-0.0006v0v-11.25128c-0.9709,-0.40278 -2.1795,-0.86981 -3.6481,-1.40179c-1.6454,-0.58538 -3.1313,-1.04535 -4.4881,-1.37386c-1.7663,-0.40506 -3.5926,-0.71797 -5.5154,-0.94635c-1.913,-0.22457 -4.0791,-0.33232 -6.4978,-0.33232c-9.0587,0 -16.1798,2.35403 -21.46944,7.03152c-5.27046,4.67368 -7.90736,10.90608 -7.91116,18.82678c0.0038,8.2095 2.64455,14.4892 7.88252,18.9807c5.27108,4.4934 12.39738,6.7597 21.46198,6.7635c2.9109,0 5.1698,-0.1271 6.8016,-0.3684c1.6551,-0.2434 3.4086,-0.608 5.3146,-1.0809z" fill="#09236b" fill-opacity="1"></path></g><g><title>path30</title><path d="M327.0291,66.3162v0v-49.6362v0h-15.1882v0l-22.3721,31.1687v0l-0.0038,-31.1687v0h-14.075v0v49.6362v0h13.4136v0l24.1505,-34.3773v0v34.3773v0z" fill="#09236b" fill-opacity="1"></path></g><g><title>path32</title><path d="M379.487,16.69v0h-50.347v0v8.68505v0h17.9946v0v40.94735v0h14.3426v0v-40.94735v0h18.0098v0z" fill="#09236b" fill-opacity="1"></path></g></g></g><g><title>ООО НИИПРИИ "Севзапинжтехнология"</title><g transform="matrix(1,0,0,1,1,83)"><text dominant-baseline="text-before-edge" style="fill: #09236b; fill-opacity: 1; font-size: 18.08852195739746px; font-family: 'Roboto', 'Roboto-Medium'; text-transform: uppercase; line-height: 22.22035026550293px; font-kerning: normal" ><tspan style="fill: #09236b; fill-opacity: 1; font-size: 18.08852195739746px; font-family: 'Roboto', 'Roboto-Medium'; text-transform: uppercase; line-height: 22.22035026550293px; font-kerning: normal">ООО НИИПРИИ "Севзапинжтехнология"</tspan></text></g></g></g></g></g></g></svg>