<svg width="398" height="107" viewBox="0 0 398 107" fill="none" xmlns="http://www.w3.org/2000/svg">
<path fill-rule="evenodd" clip-rule="evenodd" d="M0 48.0272V0.830383H164.815C80.7023 11.027 21.6423 27.3786 0 48.0272Z" fill="#A8AAAC"/>
<path fill-rule="evenodd" clip-rule="evenodd" d="M67.3735 72.9042C65.983 69.395 65.4998 65.8253 65.7563 62.1054C67.2194 41.1697 111.901 24.4292 180.012 12.6702C169.159 18.5434 161.763 30.2108 161.763 43.6491C161.763 55.8753 167.883 66.6347 177.16 72.9047L67.3735 72.9042Z" fill="#09236B"/>
<path fill-rule="evenodd" clip-rule="evenodd" d="M4.01483 78.2817C14.4437 61.4234 32.9849 49.9234 50.3888 41.4265C52.3663 40.4592 50.6375 37.5128 48.6595 38.4762C30.7644 47.2118 11.7814 59.2197 1.04671 76.5567C-0.108077 78.4375 2.85204 80.1512 4.01101 78.2817H4.01483Z" fill="#A8AAAC"/>
<path fill-rule="evenodd" clip-rule="evenodd" d="M61.7718 35.9415C72.5441 30.698 84.3432 27.1639 95.8546 23.9416C97.6221 23.4457 96.8639 20.6946 95.0946 21.1945C83.3381 24.4852 71.3454 28.1215 60.3257 33.4813C58.6751 34.2827 60.1188 36.7418 61.7697 35.9421L61.7716 35.9415H61.7718Z" fill="#A8AAAC"/>
<path fill-rule="evenodd" clip-rule="evenodd" d="M105.109 21.0279C113.982 18.6059 122.891 16.3622 131.86 14.2877C133.285 13.9548 132.675 11.7569 131.25 12.0915C122.285 14.1638 113.372 16.4059 104.499 18.8304C103.074 19.2178 103.684 21.4178 105.109 21.0306L105.109 21.0287V21.0279Z" fill="#A8AAAC"/>
<path fill-rule="evenodd" clip-rule="evenodd" d="M137.578 12.7618C142.402 11.8574 147.247 10.942 152.092 10.0925C153.177 9.90251 152.7 8.25337 151.638 8.44565C146.793 9.29075 141.946 10.2084 137.12 11.1147C136.039 11.3178 136.493 12.9652 137.578 12.7623V12.7618Z" fill="#A8AAAC"/>
<path fill-rule="evenodd" clip-rule="evenodd" d="M157.622 8.98773C161.422 8.37804 165.222 7.70167 169.022 7.16588C169.934 7.0365 169.556 5.66491 168.642 5.78879C164.842 6.32989 161.042 7.00477 157.242 7.61275C156.334 7.75829 156.712 9.13043 157.622 8.98831V8.98773Z" fill="#A8AAAC"/>
<path fill-rule="evenodd" clip-rule="evenodd" d="M172.728 6.31456C175.312 5.91976 177.875 5.54395 180.461 5.18638C181.181 5.0855 180.858 3.9858 180.157 4.08821C177.573 4.44141 175.006 4.82159 172.422 5.21697C171.704 5.32527 172.006 6.42553 172.728 6.31514V6.31456Z" fill="#A8AAAC"/>
<path fill-rule="evenodd" clip-rule="evenodd" d="M271.8 52.5448C271.8 50.5521 271.395 48.8897 270.628 47.5373C269.843 46.1596 268.813 45.0104 267.499 44.0775C266.368 43.2658 265.006 42.5841 263.368 42.0308C261.717 41.4643 260.3 41.1058 259.07 40.9291L258.65 40.8698V39.5476L259.038 39.4678C262.365 38.7779 265.026 37.4294 267.1 35.419C269.146 33.4009 270.158 31.0759 270.164 28.3189C270.151 24.6383 268.349 21.8405 264.563 19.7218C260.792 17.622 254.97 16.5297 247.148 16.5335C242.769 16.5335 238.589 16.931 234.591 17.7345C230.818 18.4848 228.048 19.1558 226.281 19.7294L226.277 29.4323H227.14C227.778 29.1602 228.7 28.7616 229.874 28.2469C231.147 27.6936 232.511 27.1907 234.01 26.7286C235.604 26.2519 237.238 25.8513 238.904 25.5298C240.59 25.2087 242.351 25.0493 244.201 25.0493C247.488 25.0487 250.148 25.4371 252.19 26.2385C254.237 27.0231 255.44 28.4789 255.422 30.394C255.434 32.4724 254.402 34.135 252.508 35.1475C250.593 36.1811 247.741 36.6523 243.882 36.6561H236.024V44.7248H244.297C248.936 44.7286 252.175 45.2344 254.121 46.376C256.023 47.493 257.034 49.3365 257.02 51.6659C257.037 54.3636 255.661 56.4727 253.103 57.7377C250.572 59.0109 247.232 59.6265 243.063 59.6265C239.812 59.6265 236.493 59.0508 233.102 57.9203C229.802 56.8125 227.136 55.6746 225.061 54.4966L224.282 54.4928V64.9792C227.165 65.9406 230.337 66.693 233.79 67.2628C237.375 67.8438 241.15 68.1368 245.115 68.1368C253.821 68.1406 260.448 66.7268 265.006 63.9608C269.583 61.1806 271.784 57.4478 271.8 52.5452V52.5448Z" fill="#09236B"/>
<path fill-rule="evenodd" clip-rule="evenodd" d="M212.755 66.6881C214.296 66.3036 215.78 65.85 217.241 65.2991C218.569 64.7935 219.773 64.3394 220.824 63.9425L220.82 52.8635H220.064C219.327 53.413 218.473 54.0269 217.501 54.7108C216.431 55.4552 215.219 56.1715 213.845 56.8825C212.548 57.5912 210.963 58.2105 209.12 58.7727C207.245 59.3425 205.278 59.6275 203.22 59.6275C201.233 59.6275 199.232 59.3372 197.255 58.7555C195.236 58.1701 193.406 57.2245 191.785 55.9173C190.084 54.5509 188.712 52.7651 187.675 50.5611C186.63 48.338 186.108 45.6215 186.108 42.4197C186.108 39.3779 186.613 36.7103 187.614 34.4441C188.608 32.196 189.886 30.3816 191.484 29.0368C193.181 27.5756 195.007 26.5384 196.916 25.9304C198.815 25.333 200.882 25.0448 203.126 25.0448C205.033 25.0448 206.865 25.3087 208.601 25.8297C210.336 26.3461 211.926 26.9752 213.376 27.7162C214.818 28.4454 216.096 29.2021 217.223 29.9733C218.287 30.6875 219.182 31.3145 219.909 31.8411L220.824 31.8406V20.5893C219.853 20.1865 218.644 19.7195 217.176 19.1875C215.53 18.6021 214.045 18.1421 212.688 17.8136C210.921 17.4085 209.095 17.0956 207.172 16.8673C205.259 16.6427 203.093 16.5349 200.675 16.5349C191.616 16.5349 184.495 18.889 179.205 23.5665C173.935 28.2402 171.298 34.4726 171.294 42.3933C171.298 50.6028 173.938 56.8825 179.176 61.374C184.447 65.8673 191.574 68.1336 200.638 68.1374C203.549 68.1374 205.808 68.0103 207.44 67.769C209.095 67.5256 210.849 67.161 212.755 66.6881H212.755Z" fill="#09236B"/>
<path fill-rule="evenodd" clip-rule="evenodd" d="M327.031 67.1485V17.5123H311.843L289.47 48.681L289.467 17.5123H275.392V67.1485H288.805L312.956 32.7712V67.1485H327.031Z" fill="#09236B"/>
<path fill-rule="evenodd" clip-rule="evenodd" d="M379.488 17.5164H329.141V26.2015H347.135V67.1488H361.478V26.2015H379.488V17.5164Z" fill="#09236B"/>
<path d="M12.8926 95.0384C12.8926 96.2985 12.6747 97.4055 12.239 98.3594C11.8032 99.3074 11.1791 100.037 10.3665 100.55C9.55984 101.056 8.62951 101.309 7.57552 101.309C6.53331 101.309 5.60298 101.056 4.78452 100.55C3.97195 100.037 3.34192 99.3103 2.89441 98.3682C2.4528 97.4261 2.22905 96.3397 2.22316 95.1091V94.3848C2.22316 93.1306 2.44397 92.0237 2.88558 91.0639C3.33308 90.1041 3.96018 89.371 4.76686 88.8646C5.57943 88.3524 6.50976 88.0962 7.55786 88.0962C8.60596 88.0962 9.53335 88.3494 10.34 88.8558C11.1526 89.3563 11.7797 90.0806 12.2213 91.0286C12.6629 91.9707 12.8867 93.0688 12.8926 94.323V95.0384ZM10.658 94.3672C10.658 92.9422 10.3871 91.85 9.84542 91.0904C9.3096 90.3308 8.54708 89.951 7.55786 89.951C6.5922 89.951 5.83556 90.3308 5.28796 91.0904C4.74625 91.8441 4.4695 92.9128 4.45773 94.2965V95.0384C4.45773 96.4516 4.73153 97.5438 5.27913 98.3152C5.83262 99.0865 6.59808 99.4722 7.57552 99.4722C8.56474 99.4722 9.32432 99.0954 9.85425 98.3417C10.3901 97.588 10.658 96.4869 10.658 95.0384V94.3672ZM25.3814 95.0384C25.3814 96.2985 25.1635 97.4055 24.7278 98.3594C24.2921 99.3074 23.6679 100.037 22.8554 100.55C22.0487 101.056 21.1184 101.309 20.0644 101.309C19.0222 101.309 18.0918 101.056 17.2734 100.55C16.4608 100.037 15.8308 99.3103 15.3833 98.3682C14.9417 97.4261 14.7179 96.3397 14.712 95.1091V94.3848C14.712 93.1306 14.9328 92.0237 15.3744 91.0639C15.8219 90.1041 16.449 89.371 17.2557 88.8646C18.0683 88.3524 18.9986 88.0962 20.0467 88.0962C21.0948 88.0962 22.0222 88.3494 22.8289 88.8558C23.6415 89.3563 24.2685 90.0806 24.7102 91.0286C25.1518 91.9707 25.3755 93.0688 25.3814 94.323V95.0384ZM23.1468 94.3672C23.1468 92.9422 22.876 91.85 22.3343 91.0904C21.7984 90.3308 21.0359 89.951 20.0467 89.951C19.081 89.951 18.3244 90.3308 17.7768 91.0904C17.2351 91.8441 16.9584 92.9128 16.9466 94.2965V95.0384C16.9466 96.4516 17.2204 97.5438 17.768 98.3152C18.3215 99.0865 19.0869 99.4722 20.0644 99.4722C21.0536 99.4722 21.8132 99.0954 22.3431 98.3417C22.8789 97.588 23.1468 96.4869 23.1468 95.0384V94.3672ZM37.8703 95.0384C37.8703 96.2985 37.6524 97.4055 37.2167 98.3594C36.781 99.3074 36.1568 100.037 35.3442 100.55C34.5375 101.056 33.6072 101.309 32.5532 101.309C31.511 101.309 30.5807 101.056 29.7622 100.55C28.9497 100.037 28.3196 99.3103 27.8721 98.3682C27.4305 97.4261 27.2068 96.3397 27.2009 95.1091V94.3848C27.2009 93.1306 27.4217 92.0237 27.8633 91.0639C28.3108 90.1041 28.9379 89.371 29.7446 88.8646C30.5571 88.3524 31.4875 88.0962 32.5356 88.0962C33.5837 88.0962 34.5111 88.3494 35.3177 88.8558C36.1303 89.3563 36.7574 90.0806 37.199 91.0286C37.6406 91.9707 37.8644 93.0688 37.8703 94.323V95.0384ZM35.6357 94.3672C35.6357 92.9422 35.3648 91.85 34.8231 91.0904C34.2873 90.3308 33.5248 89.951 32.5356 89.951C31.5699 89.951 30.8133 90.3308 30.2657 91.0904C29.724 91.8441 29.4472 92.9128 29.4354 94.2965V95.0384C29.4354 96.4516 29.7092 97.5438 30.2568 98.3152C30.8103 99.0865 31.5758 99.4722 32.5532 99.4722C33.5424 99.4722 34.302 99.0954 34.832 98.3417C35.3678 97.588 35.6357 96.4869 35.6357 95.0384V94.3672ZM54.8106 101.133H52.5849V95.4182H46.835V101.133H44.6005V88.2729H46.835V93.6252H52.5849V88.2729H54.8106V101.133ZM65.3387 88.2729H67.5732V101.133H65.3387V91.9736L59.6948 101.133H57.4603V88.2729H59.6948V97.4408L65.3387 88.2729ZM78.1278 88.2729H80.3624V101.133H78.1278V91.9736L72.484 101.133H70.2494V88.2729H72.484V97.4408L78.1278 88.2729ZM93.2134 101.133H90.9876V90.0747H85.3261V101.133H83.1004V88.2729H93.2134V101.133ZM98.1506 96.3544V101.133H95.916V88.2729H100.836C102.272 88.2729 103.412 88.6468 104.254 89.3946C105.102 90.1424 105.526 91.1316 105.526 92.3622C105.526 93.6223 105.11 94.6027 104.28 95.3034C103.456 96.0041 102.299 96.3544 100.809 96.3544H98.1506ZM98.1506 94.5615H100.836C101.631 94.5615 102.237 94.376 102.655 94.005C103.073 93.6282 103.282 93.0865 103.282 92.3799C103.282 91.6851 103.07 91.1316 102.646 90.7194C102.222 90.3014 101.639 90.0864 100.897 90.0747H98.1506V94.5615ZM115.365 88.2729H117.599V101.133H115.365V91.9736L109.721 101.133H107.486V88.2729H109.721V97.4408L115.365 88.2729ZM128.154 88.2729H130.388V101.133H128.154V91.9736L122.51 101.133H120.275V88.2729H122.51V97.4408L128.154 88.2729ZM138.691 88.7763L138.382 92.1944H137.154V87.5663H138.691V88.7763ZM141.349 88.7763L141.04 92.1944H139.813V87.5663H141.349V88.7763ZM153.246 96.9462C153.117 98.3181 152.61 99.3898 151.727 100.161C150.844 100.927 149.669 101.309 148.203 101.309C147.179 101.309 146.275 101.068 145.492 100.585C144.714 100.096 144.114 99.4045 143.69 98.5095C143.266 97.6145 143.045 96.5752 143.027 95.3917V94.1905C143.027 92.9775 143.242 91.9088 143.672 90.9844C144.102 90.0599 144.717 89.3475 145.518 88.847C146.325 88.3465 147.255 88.0962 148.309 88.0962C149.728 88.0962 150.871 88.4819 151.736 89.2533C152.602 90.0246 153.105 91.1139 153.246 92.5212H151.021C150.915 91.5968 150.644 90.9314 150.208 90.5251C149.778 90.1129 149.145 89.9069 148.309 89.9069C147.338 89.9069 146.59 90.2631 146.066 90.9756C145.548 91.6821 145.283 92.7214 145.271 94.0934V95.2327C145.271 96.6223 145.518 97.6822 146.013 98.4123C146.513 99.1425 147.243 99.5075 148.203 99.5075C149.081 99.5075 149.74 99.3103 150.182 98.9158C150.623 98.5213 150.903 97.8647 151.021 96.9462H153.246ZM162.768 95.3917H157.486V99.3486H163.66V101.133H155.251V88.2729H163.598V90.0747H157.486V93.6252H162.768V95.3917ZM165.479 101.133V88.2729H169.886C171.341 88.2729 172.448 88.5643 173.207 89.1473C173.967 89.7302 174.347 90.5987 174.347 91.7528C174.347 92.3416 174.188 92.8716 173.87 93.3426C173.552 93.8137 173.087 94.1787 172.474 94.4378C173.169 94.6262 173.705 94.9825 174.082 95.5065C174.465 96.0247 174.656 96.6488 174.656 97.379C174.656 98.586 174.267 99.5134 173.49 100.161C172.719 100.809 171.612 101.133 170.169 101.133H165.479ZM167.714 95.3299V99.3486H170.196C170.896 99.3486 171.444 99.1749 171.838 98.8275C172.233 98.4801 172.43 97.9972 172.43 97.379C172.43 96.0423 171.747 95.3593 170.381 95.3299H167.714ZM167.714 93.6871H169.904C170.599 93.6871 171.141 93.531 171.529 93.219C171.924 92.901 172.121 92.4535 172.121 91.8765C172.121 91.2405 171.938 90.7813 171.573 90.4986C171.214 90.216 170.652 90.0747 169.886 90.0747H167.714V93.6871ZM183.32 91.7793C183.32 91.2023 183.102 90.743 182.667 90.4015C182.231 90.0599 181.639 89.8892 180.891 89.8892C180.25 89.8892 179.714 90.0599 179.284 90.4015C178.854 90.7371 178.639 91.1728 178.639 91.7086H176.414C176.414 91.0079 176.608 90.3838 176.996 89.8362C177.385 89.2886 177.924 88.8646 178.613 88.5643C179.302 88.2582 180.061 88.1051 180.891 88.1051C182.364 88.1051 183.506 88.426 184.318 89.0678C185.137 89.7096 185.546 90.6075 185.546 91.7616C185.546 92.3446 185.369 92.8804 185.016 93.3691C184.663 93.8578 184.168 94.2435 183.532 94.5261C184.251 94.7734 184.798 95.1503 185.175 95.6567C185.558 96.1572 185.749 96.7813 185.749 97.5291C185.749 98.6832 185.308 99.6018 184.424 100.285C183.541 100.962 182.364 101.301 180.891 101.301C179.985 101.301 179.163 101.139 178.427 100.815C177.697 100.491 177.147 100.049 176.776 99.4899C176.411 98.9305 176.228 98.2887 176.228 97.5644H178.454C178.454 98.1179 178.683 98.586 179.143 98.9688C179.602 99.3456 180.185 99.534 180.891 99.534C181.68 99.534 182.313 99.3486 182.79 98.9776C183.273 98.6067 183.515 98.1238 183.515 97.5291C183.515 96.8049 183.303 96.2808 182.879 95.957C182.461 95.6272 181.845 95.4624 181.033 95.4624H179.522V93.6959H180.953C182.531 93.6959 183.32 93.057 183.32 91.7793ZM195.023 98.1385H190.042L189 101.133H186.677L191.534 88.2729H193.539L198.406 101.133H196.074L195.023 98.1385ZM190.669 96.3368H194.396L192.532 91.0021L190.669 96.3368ZM210.047 101.133H207.821V90.0747H202.16V101.133H199.934V88.2729H210.047V101.133ZM220.628 88.2729H222.862V101.133H220.628V91.9736L214.984 101.133H212.75V88.2729H214.984V97.4408L220.628 88.2729ZM235.749 101.133H233.523V95.4182H227.773V101.133H225.539V88.2729H227.773V93.6252H233.523V88.2729H235.749V101.133ZM248.547 95.586H247.107V101.133H244.881V95.586H243.38L240.227 101.133H237.445L241.587 94.2877L237.718 88.2729H240.421L243.495 93.6429H244.881V88.2729H247.107V93.6429H248.432L251.479 88.2729H254.173L250.34 94.27L254.447 101.133H251.673L248.547 95.586ZM265.107 90.0747H261.097V101.133H258.881V90.0747H254.906V88.2729H265.107V90.0747ZM274.319 95.3917H269.038V99.3486H275.211V101.133H266.803V88.2729H275.15V90.0747H269.038V93.6252H274.319V95.3917ZM281.456 92.9187L284.159 88.2729H286.738L282.851 94.6498L286.826 101.133H284.22L281.456 96.4162L278.683 101.133H276.086L280.069 94.6498L276.174 88.2729H278.753L281.456 92.9187ZM298.688 101.133H296.462V95.4182H290.712V101.133H288.478V88.2729H290.712V93.6252H296.462V88.2729H298.688V101.133ZM311.6 95.0384C311.6 96.2985 311.383 97.4055 310.947 98.3594C310.511 99.3074 309.887 100.037 309.074 100.55C308.268 101.056 307.337 101.309 306.283 101.309C305.241 101.309 304.311 101.056 303.492 100.55C302.68 100.037 302.05 99.3103 301.602 98.3682C301.161 97.4261 300.937 96.3397 300.931 95.1091V94.3848C300.931 93.1306 301.152 92.0237 301.593 91.0639C302.041 90.1041 302.668 89.371 303.475 88.8646C304.287 88.3524 305.218 88.0962 306.266 88.0962C307.314 88.0962 308.241 88.3494 309.048 88.8558C309.861 89.3563 310.488 90.0806 310.929 91.0286C311.371 91.9707 311.595 93.0688 311.6 94.323V95.0384ZM309.366 94.3672C309.366 92.9422 309.095 91.85 308.553 91.0904C308.018 90.3308 307.255 89.951 306.266 89.951C305.3 89.951 304.543 90.3308 303.996 91.0904C303.454 91.8441 303.177 92.9128 303.166 94.2965V95.0384C303.166 96.4516 303.439 97.5438 303.987 98.3152C304.541 99.0865 305.306 99.4722 306.283 99.4722C307.273 99.4722 308.032 99.0954 308.562 98.3417C309.098 97.588 309.366 96.4869 309.366 95.0384V94.3672ZM323.657 88.2729V101.133H321.431V90.0747H317.492L317.262 95.0472C317.174 96.6017 316.982 97.8088 316.688 98.6685C316.399 99.5223 315.978 100.146 315.425 100.541C314.871 100.935 314.129 101.133 313.199 101.133H312.634V99.3486L312.987 99.3221C313.499 99.275 313.894 99.0954 314.171 98.7833C314.453 98.4712 314.665 98.0002 314.807 97.3701C314.954 96.7342 315.057 95.8009 315.116 94.5703L315.363 88.2729H323.657ZM336.614 95.0384C336.614 96.2985 336.396 97.4055 335.96 98.3594C335.524 99.3074 334.9 100.037 334.087 100.55C333.281 101.056 332.35 101.309 331.296 101.309C330.254 101.309 329.324 101.056 328.505 100.55C327.693 100.037 327.063 99.3103 326.615 98.3682C326.174 97.4261 325.95 96.3397 325.944 95.1091V94.3848C325.944 93.1306 326.165 92.0237 326.607 91.0639C327.054 90.1041 327.681 89.371 328.488 88.8646C329.3 88.3524 330.231 88.0962 331.279 88.0962C332.327 88.0962 333.254 88.3494 334.061 88.8558C334.874 89.3563 335.501 90.0806 335.942 91.0286C336.384 91.9707 336.608 93.0688 336.614 94.323V95.0384ZM334.379 94.3672C334.379 92.9422 334.108 91.85 333.566 91.0904C333.031 90.3308 332.268 89.951 331.279 89.951C330.313 89.951 329.557 90.3308 329.009 91.0904C328.467 91.8441 328.19 92.9128 328.179 94.2965V95.0384C328.179 96.4516 328.452 97.5438 329 98.3152C329.554 99.0865 330.319 99.4722 331.296 99.4722C332.286 99.4722 333.045 99.0954 333.575 98.3417C334.111 97.588 334.379 96.4869 334.379 95.0384V94.3672ZM347.062 90.0747H341.127V101.133H338.901V88.2729H347.062V90.0747ZM356.804 88.2729H359.039V101.133H356.804V91.9736L351.16 101.133H348.926V88.2729H351.16V97.4408L356.804 88.2729ZM368.056 101.133V96.3279H365.566L363.084 101.133H360.69L363.561 95.6655C362.065 94.9589 361.317 93.8019 361.317 92.1944C361.317 90.9638 361.721 90.007 362.527 89.3239C363.34 88.635 364.471 88.2847 365.919 88.2729H370.291V101.133H368.056ZM363.543 92.2916C363.543 93.0158 363.746 93.5811 364.153 93.9874C364.559 94.3937 365.168 94.5968 365.981 94.5968H368.056V90.0747H365.981C365.157 90.0747 364.544 90.2719 364.144 90.6664C363.743 91.0609 363.543 91.6027 363.543 92.2916ZM374.071 88.7763L373.762 92.1944H372.534V87.5663H374.071V88.7763ZM376.73 88.7763L376.421 92.1944H375.193V87.5663H376.73V88.7763Z" fill="#09236B"/>
</svg>
